<?xml version="1.0" encoding="UTF-8"?>
<svg width="443px" height="215px" viewBox="0 0 443 215" version="1.1" xmlns="http://www.w3.org/2000/svg" xmlns:xlink="http://www.w3.org/1999/xlink">
    <!-- Generator: Sketch 43.1 (39012) - http://www.bohemiancoding.com/sketch -->
    <title>mobi-pcs-logo</title>
    <desc>Created with Sketch.</desc>
    <defs></defs>
    <g id="Page-1" stroke="none" stroke-width="1" fill="none" fill-rule="evenodd">
        <g id="Mobi" fill-rule="nonzero" fill="#FFFFFF">
            <path d="M392.8524,177.2675 C390.9032,176.268382 387.1377,175.794118 381.657157,175.794118 C376.296857,175.794118 372.537686,176.268382 370.582157,177.2675 C368.512714,178.209706 368.392471,179.752647 368.392471,181.346176 L368.392471,199.444118 C368.392471,201.037647 368.512714,202.517353 370.582157,203.529118 C372.537686,204.528235 376.296857,204.996176 381.657157,204.996176 C387.131371,204.996176 390.9032,204.528235 392.8524,203.529118 C394.915514,202.523676 395.048414,201.037647 395.048414,199.444118 L395.048414,193.411471 L387.264271,193.411471 L387.264271,200.101765 C387.264271,201.638382 384.827771,202.226471 381.663486,202.226471 C378.613114,202.226471 376.0627,201.638382 376.0627,200.101765 L376.0627,180.7075 C376.0627,179.164559 378.606786,178.576471 381.663486,178.576471 C384.827771,178.576471 387.264271,179.164559 387.264271,180.7075 L387.264271,186.442941 L395.048414,186.442941 L395.048414,181.346176 C395.048414,179.752647 394.915514,178.216029 392.8524,177.2675 Z" id="Shape"></path>
            <path d="M357.570614,176.085 C353.919029,175.496912 347.951186,175.617059 344.413514,177.564706 L344.413514,176.085 L336.6357,176.085 L336.6357,214.228529 L344.413514,214.228529 L344.413514,203.231912 C348.0651,205.185882 353.919029,205.306029 357.570614,204.711618 C361.462686,204.117206 363.278986,203.054853 363.278986,199.564265 L363.278986,181.112206 C363.278986,177.678529 361.462686,176.673088 357.570614,176.085 Z M355.621414,199.855147 C355.621414,201.391765 353.064671,202.049412 350.0143,202.049412 C346.850014,202.049412 344.407186,201.391765 344.407186,199.855147 L344.407186,180.637941 C344.407186,179.158235 346.850014,178.513235 350.0143,178.513235 C353.058343,178.513235 355.621414,179.158235 355.621414,180.701176 L355.621414,199.855147 Z" id="Shape"></path>
            <path d="M424.6155,177.204265 C422.6663,176.268382 418.894471,175.724559 413.426586,175.724559 C408.066286,175.724559 404.294457,176.268382 402.345257,177.204265 C400.282143,178.209706 400.155571,179.638824 400.155571,181.289265 L400.155571,190.331912 L419.014714,190.331912 L419.014714,200.095441 C419.014714,201.632059 416.4643,202.220147 413.420257,202.220147 C410.369886,202.220147 407.806814,201.568824 407.806814,200.095441 L407.806814,194.005882 L400.149243,194.005882 L400.149243,199.444118 C400.149243,201.037647 400.275814,202.517353 402.338929,203.529118 C404.288129,204.528235 408.059957,204.996176 413.420257,204.996176 C418.881814,204.996176 422.659971,204.528235 424.609171,203.529118 C426.672286,202.523676 426.805186,201.037647 426.805186,199.444118 L426.805186,187.555882 L407.813143,187.555882 L407.813143,180.637941 C407.813143,179.158235 410.369886,178.513235 413.426586,178.513235 C416.578214,178.513235 419.021043,179.158235 419.021043,180.637941 L419.021043,183.888235 L426.805186,183.888235 L426.805186,181.295588 C426.805186,179.695735 426.558371,178.216029 424.6155,177.204265 Z" id="Shape"></path>
            <path d="M145.519171,48.6216176 C132.868357,46.6992647 111.117057,46.5095588 92.1313429,54.0029412 C88.5746857,51.1194118 83.4295571,49.5827941 76.3162429,48.6216176 C62.8743571,46.5095588 41.5217571,46.7055882 28.0798714,54.0029412 L28.0798714,48.8113235 L0,48.8113235 L0,167.718971 L28.0798714,167.718971 L28.0798714,65.3410294 C28.0798714,59.9597059 37.1740286,57.4619118 48.6477286,57.4619118 C59.7227286,57.4619118 68.8168857,59.9597059 68.8168857,65.5370588 L68.8168857,167.725294 L97.2828,167.725294 L97.2828,65.3473529 C97.2828,59.9660294 106.383286,57.4682353 117.451957,57.4682353 C128.919329,57.4682353 138.019814,59.9660294 138.019814,65.5433824 L138.019814,167.731618 L166.093357,167.731618 L166.093357,67.0673529 C166.087029,54.3886765 159.359757,50.74 145.519171,48.6216176 Z" id="Shape"></path>
            <path d="M377.6575,163.684559 C385.175843,160.035882 385.523914,154.641912 385.523914,148.697794 L385.523914,66.9851471 C385.523914,54.1483824 378.802971,50.6514706 364.956057,48.5394118 C353.438057,46.7941176 334.370071,46.4779412 316.726014,52.0932353 L316.726014,11.8566176 L288.646143,11.8566176 L288.646143,148.691471 C288.646143,154.483824 289.044843,160.029559 296.164486,163.678235 C303.6765,167.326912 317.124714,169.059559 336.895171,169.059559 C356.640314,169.059559 370.493557,167.333235 377.6575,163.684559 Z M316.726014,151.132353 L316.726014,65.1260294 C316.726014,59.6751471 325.902443,57.3797059 336.888843,57.3797059 C348.356214,57.3797059 357.450371,59.8775 357.450371,65.4485294 L357.4567,65.4485294 L357.444043,151.132353 C357.444043,156.703382 348.343557,159.201176 336.888843,159.201176 C325.813843,159.2075 316.726014,156.703382 316.726014,151.132353 Z" id="Shape"></path>
            <path d="M267.913743,52.8457353 C260.756129,49.1970588 246.909214,47.4644118 227.157743,47.4644118 C207.387286,47.4644118 193.9454,49.1970588 186.433386,52.8457353 C179.313743,56.5007353 178.915043,61.8820588 178.915043,67.8325 L178.915043,148.691471 C178.915043,154.483824 179.307414,160.029559 186.433386,163.678235 C193.951729,167.326912 207.387286,169.059559 227.157743,169.059559 C246.909214,169.059559 260.762457,167.333235 267.913743,163.678235 C275.432086,160.029559 275.818129,154.635588 275.818129,148.691471 L275.818129,67.8325 C275.818129,61.7176471 275.425757,56.5007353 267.913743,52.8457353 Z M247.687629,151.195588 C247.687629,156.766618 238.618786,158.878676 227.157743,158.878676 C216.0954,158.878676 206.994914,156.602206 206.994914,151.195588 L206.994914,65.3410294 C206.994914,59.77 216.0954,57.6516176 227.157743,57.6516176 C238.625114,57.6516176 247.687629,59.6055882 247.687629,65.3410294 L247.687629,151.195588 Z" id="Shape"></path>
            <path d="M428.2924,25.6229412 C429.323957,23.3907353 429.918843,20.9182353 429.918843,18.3002941 C429.918843,8.61897059 422.058757,0.771470588 412.369714,0.771470588 C402.687,0.771470588 394.826914,8.62529412 394.826914,18.3002941 C394.826914,27.9816176 402.687,35.8291176 412.369714,35.8291176 C419.046357,35.8291176 424.849657,32.1045588 427.8051,26.6283824 C441.8039,42.4561765 425.609086,46.8510294 416.844014,48.7291176 C404.440014,50.8980882 398.402557,54.7997059 398.383571,66.7891176 L398.358257,66.7891176 L398.358257,167.712647 L426.444457,167.712647 L426.444457,66.7132353 C440.4749,58.6823529 454.4737,40.3061765 428.2924,25.6229412 Z" id="Shape"></path>
        </g>
    </g>
</svg>