<?xml version="1.0" encoding="UTF-8"?>
<svg width="216px" height="123px" viewBox="0 0 216 123" version="1.1" xmlns="http://www.w3.org/2000/svg" xmlns:xlink="http://www.w3.org/1999/xlink">
    <!-- Generator: Sketch 43.1 (39012) - http://www.bohemiancoding.com/sketch -->
    <title>Page 1</title>
    <desc>Created with Sketch.</desc>
    <defs></defs>
    <g id="Page-1" stroke="none" stroke-width="1" fill="none" fill-rule="evenodd">
        <g id="ASB" fill="#FFFFFF">
            <path d="M12.5766,66.6934 L-0.0004,96.1394 L4.2916,96.1394 L7.9826,87.5104 L20.4316,87.5104 L24.3366,96.1394 L28.6296,96.1394 L15.5386,66.6934 L12.5766,66.6934 Z M13.9936,73.1314 L18.7146,83.7344 L9.6146,83.7344 L13.9936,73.1314 Z" id="Fill-1"></path>
            <polygon id="Fill-2" points="59.916 66.8652 56.009 66.8652 46.266 78.8832 36.565 66.8652 32.616 66.8652 32.616 96.1392 36.822 96.1392 36.822 73.3462 36.908 73.3462 45.923 84.6772 46.609 84.6772 55.623 73.3462 55.708 73.3462 55.708 96.1392 59.916 96.1392"></polygon>
            <polygon id="Fill-3" points="82.8169 66.8652 66.2059 66.8652 66.2059 96.1392 83.2039 96.1392 83.2039 92.3632 70.4119 92.3632 70.4119 83.2602 82.3879 83.2602 82.3879 79.4832 70.4119 79.4832 70.4119 70.6422 82.8169 70.6422"></polygon>
            <path d="M92.8208,70.4707 L92.8208,79.6567 L95.5248,79.6567 C100.0318,79.6567 101.3198,77.3377 101.2768,74.8907 C101.2348,72.1437 99.6038,70.4707 95.5248,70.4707 L92.8208,70.4707 Z M88.6138,66.8657 L95.9978,66.8657 C101.9218,66.8657 105.6128,69.9967 105.6128,75.0627 C105.6128,78.4537 103.8528,80.9867 100.7188,82.2327 C103.3808,83.9907 105.0108,86.6937 107.2428,90.3457 C108.4888,92.3637 109.2168,93.3497 111.2358,96.1397 L106.2138,96.1397 L102.3508,90.1297 C98.4878,84.1197 96.7268,83.4337 94.5808,83.4337 L92.8208,83.4337 L92.8208,96.1397 L88.6138,96.1397 L88.6138,66.8657 Z" id="Fill-4"></path>
            <polygon id="Fill-6" points="115.337 96.139 119.545 96.139 119.545 66.865 115.337 66.865"></polygon>
            <path d="M150.9668,68.8828 C146.9748,67.2078 143.9258,66.4788 140.9218,66.4788 C131.6078,66.4788 124.8688,73.0018 124.8688,81.9328 C124.8688,88.0698 129.6768,96.5258 140.6658,96.5258 C145.2568,96.5258 148.3908,95.4518 151.2678,93.9488 L151.2678,89.3558 C147.9618,91.5048 144.3548,92.6618 141.0508,92.6618 C134.0108,92.6618 129.2038,88.1118 129.2038,81.5428 C129.2038,75.1058 134.1828,70.3418 140.8788,70.3418 C144.2698,70.3418 147.3608,71.2848 150.9668,73.3888 L150.9668,68.8828 Z" id="Fill-8"></path>
            <path d="M169.0996,73.1309 L173.8236,83.7349 L164.7236,83.7349 L169.0996,73.1309 Z M170.6466,66.6939 L167.6856,66.6939 L155.1086,96.1399 L159.3986,96.1399 L163.0916,87.5109 L175.5406,87.5109 L179.4456,96.1399 L183.7396,96.1399 L170.6466,66.6939 Z" id="Fill-9"></path>
            <polygon id="Fill-10" points="214.8945 66.8652 210.9465 66.8652 210.9465 89.5282 191.1155 66.8652 187.7665 66.8652 187.7665 96.1392 191.7155 96.1392 191.7155 73.6042 211.2905 96.1392 214.8945 96.1392"></polygon>
            <path d="M89.7686,114.9316 C90.5006,115.9956 91.7676,116.4876 92.9936,116.4876 C94.3476,116.4876 96.0236,115.6676 96.0236,114.0716 C96.0236,110.7336 88.5226,112.8026 88.5226,107.1506 C88.5226,105.4516 90.0266,103.0976 93.6826,103.0976 C95.3366,103.0976 96.9286,103.4246 98.0676,104.7556 L96.3906,106.2086 C95.8736,105.4516 94.8636,104.9396 93.6826,104.9396 C91.4026,104.9396 90.7136,106.2496 90.7136,107.1506 C90.7136,110.8156 98.2176,108.6246 98.2176,113.8456 C98.2176,116.6506 95.8526,118.3296 92.9296,118.3296 C90.9726,118.3296 89.1026,117.6956 88.0706,116.3246 L89.7686,114.9316 Z" id="Fill-11"></path>
            <path d="M106.3872,113.293 C104.5592,113.293 102.3242,113.6 102.3242,115.156 C102.3242,116.262 103.1832,116.732 104.5162,116.732 C106.6662,116.732 107.4182,115.219 107.4182,113.908 L107.4182,113.293 L106.3872,113.293 Z M100.9272,109.443 C102.0012,108.482 103.5492,108.011 104.9682,108.011 C107.9772,108.011 109.2252,109.566 109.2252,111.246 L109.2252,116.2 C109.2252,116.875 109.2462,117.449 109.3102,117.961 L107.5902,117.961 C107.5472,117.471 107.5262,116.979 107.5262,116.487 L107.4832,116.487 C106.6232,117.735 105.4632,118.207 103.9142,118.207 C102.0222,118.207 100.3882,117.184 100.3882,115.299 C100.3882,112.803 102.9042,111.942 105.9992,111.942 L107.4182,111.942 L107.4182,111.533 C107.4182,110.529 106.6452,109.485 104.9892,109.485 C103.5062,109.485 102.7972,110.079 102.0872,110.59 L100.9272,109.443 Z" id="Fill-12"></path>
            <polygon id="Fill-13" points="110.9229 108.2568 113.1579 108.2568 116.2119 115.6898 119.1349 108.2568 121.1989 108.2568 117.1999 117.9608 115.0719 117.9608"></polygon>
            <path d="M123.154,117.961 L125.09,117.961 L125.09,108.257 L123.154,108.257 L123.154,117.961 Z M124.123,103.425 C124.896,103.425 125.542,104.039 125.542,104.776 C125.542,105.514 124.896,106.127 124.123,106.127 C123.348,106.127 122.704,105.514 122.704,104.776 C122.704,104.039 123.348,103.425 124.123,103.425 L124.123,103.425 Z" id="Fill-14"></path>
            <path d="M128.2715,108.2568 L130.2065,108.2568 L130.2065,109.7498 L130.2485,109.7498 C130.7435,108.7268 132.0325,108.0108 133.6025,108.0108 C135.5805,108.0108 137.3005,109.1368 137.3005,111.7168 L137.3005,117.9608 L135.3655,117.9608 L135.3655,112.2288 C135.3655,110.4058 134.2695,109.7308 133.0425,109.7308 C131.4315,109.7308 130.2065,110.7128 130.2065,112.9658 L130.2065,117.9608 L128.2715,117.9608 L128.2715,108.2568 Z" id="Fill-15"></path>
            <path d="M141.9004,113.1094 C141.9004,115.0744 143.1904,116.3634 145.2544,116.3634 C147.3184,116.3634 148.6074,115.0744 148.6074,113.1094 C148.6074,111.1424 147.3184,109.7304 145.2544,109.7304 C143.1904,109.7304 141.9004,111.1424 141.9004,113.1094 L141.9004,113.1094 Z M150.5434,117.8794 C150.5434,120.8064 148.3064,122.8754 144.9744,122.8754 C143.0404,122.8754 141.4274,122.4044 139.9884,121.1344 L141.2984,119.5784 C142.3094,120.6034 143.4494,121.1544 144.9314,121.1544 C147.8124,121.1544 148.6074,119.4354 148.6074,117.7974 L148.6074,116.3634 L148.5434,116.3634 C147.8124,117.5314 146.4154,118.0844 145.0174,118.0844 C142.0294,118.0844 139.8164,115.9344 139.8374,113.1094 C139.8374,110.2424 141.8584,108.0104 145.0174,108.0104 C146.3944,108.0104 147.8124,108.6044 148.5654,109.6484 L148.6074,109.6484 L148.6074,108.2564 L150.5434,108.2564 L150.5434,117.8794 Z" id="Fill-16"></path>
            <path d="M158.9912,110.6934 C158.5392,110.1604 157.8742,109.7304 156.9062,109.7304 C156.0032,109.7304 155.2082,110.1194 155.2082,110.8154 C155.2082,111.9824 156.9492,112.1464 157.8092,112.3314 C159.4862,112.7184 160.7752,113.3344 160.7752,115.1564 C160.7752,117.3474 158.6702,118.2074 156.6472,118.2074 C154.9702,118.2074 153.7242,117.7974 152.7142,116.4874 L154.1762,115.3404 C154.7992,115.9344 155.5302,116.4874 156.6472,116.4874 C157.6372,116.4874 158.7122,116.0974 158.7122,115.2574 C158.7122,114.1524 157.0992,113.9494 156.2622,113.7634 C154.6052,113.3754 153.1432,112.8634 153.1432,111.0004 C153.1432,108.9724 155.1002,108.0104 157.0132,108.0104 C158.3692,108.0104 159.7652,108.4614 160.4962,109.6074 L158.9912,110.6934 Z" id="Fill-17"></path>
            <path d="M171.8682,116.2422 L174.9002,116.2422 C176.1462,116.2422 178.1892,115.8322 178.1892,113.7852 C178.1892,112.0642 176.9212,111.2052 174.9222,111.2052 L171.8682,111.2052 L171.8682,116.2422 Z M171.8682,109.4852 L174.6852,109.4852 C176.2532,109.4852 177.5222,108.8902 177.5222,107.3142 C177.5222,106.1682 176.7692,105.1842 175.1152,105.1842 L171.8682,105.1842 L171.8682,109.4852 Z M169.8052,103.4652 L175.0932,103.4652 C177.7372,103.4652 179.7152,104.6332 179.7152,107.0902 C179.7152,108.7482 178.6402,109.7932 177.0922,110.2832 L177.0922,110.3242 C178.9202,110.4472 180.3812,111.9822 180.3812,113.9282 C180.3812,116.5282 177.9952,117.9612 175.0282,117.9612 L169.8052,117.9612 L169.8052,103.4652 Z" id="Fill-18"></path>
            <path d="M188.4648,113.293 C186.6378,113.293 184.4008,113.6 184.4008,115.156 C184.4008,116.262 185.2608,116.732 186.5948,116.732 C188.7438,116.732 189.4968,115.219 189.4968,113.908 L189.4968,113.293 L188.4648,113.293 Z M183.0038,109.443 C184.0788,108.482 185.6268,108.011 187.0448,108.011 C190.0548,108.011 191.3028,109.566 191.3028,111.246 L191.3028,116.2 C191.3028,116.875 191.3228,117.449 191.3878,117.961 L189.6678,117.961 C189.6248,117.471 189.6038,116.979 189.6038,116.487 L189.5608,116.487 C188.7008,117.735 187.5398,118.207 185.9918,118.207 C184.1008,118.207 182.4668,117.184 182.4668,115.299 C182.4668,112.803 184.9818,111.942 188.0778,111.942 L189.4968,111.942 L189.4968,111.533 C189.4968,110.529 188.7228,109.485 187.0678,109.485 C185.5838,109.485 184.8748,110.079 184.1648,110.59 L183.0038,109.443 Z" id="Fill-19"></path>
            <path d="M194.2266,108.2568 L196.1606,108.2568 L196.1606,109.7498 L196.2036,109.7498 C196.6976,108.7268 197.9886,108.0108 199.5566,108.0108 C201.5356,108.0108 203.2546,109.1368 203.2546,111.7168 L203.2546,117.9608 L201.3206,117.9608 L201.3206,112.2288 C201.3206,110.4058 200.2246,109.7308 198.9976,109.7308 C197.3866,109.7308 196.1606,110.7128 196.1606,112.9658 L196.1606,117.9608 L194.2266,117.9608 L194.2266,108.2568 Z" id="Fill-20"></path>
            <polygon id="Fill-21" points="206.2861 102.4824 208.2211 102.4824 208.2211 112.4744 212.6061 108.2774 215.2931 108.2774 210.5431 112.6784 215.7021 117.9614 212.9511 117.9614 208.2211 112.9244 208.2211 117.9614 206.2861 117.9614"></polygon>
            <path d="M89.7686,114.9316 C90.5006,115.9956 91.7676,116.4876 92.9936,116.4876 C94.3476,116.4876 96.0236,115.6676 96.0236,114.0716 C96.0236,110.7336 88.5226,112.8026 88.5226,107.1506 C88.5226,105.4516 90.0266,103.0976 93.6826,103.0976 C95.3366,103.0976 96.9286,103.4246 98.0676,104.7556 L96.3906,106.2086 C95.8736,105.4516 94.8636,104.9396 93.6826,104.9396 C91.4026,104.9396 90.7136,106.2496 90.7136,107.1506 C90.7136,110.8156 98.2176,108.6246 98.2176,113.8456 C98.2176,116.6506 95.8526,118.3296 92.9296,118.3296 C90.9726,118.3296 89.1026,117.6956 88.0706,116.3246 L89.7686,114.9316 Z" id="Fill-22"></path>
            <path d="M106.3872,113.293 C104.5592,113.293 102.3242,113.6 102.3242,115.156 C102.3242,116.262 103.1832,116.732 104.5162,116.732 C106.6662,116.732 107.4182,115.219 107.4182,113.908 L107.4182,113.293 L106.3872,113.293 Z M100.9272,109.443 C102.0012,108.482 103.5492,108.011 104.9682,108.011 C107.9772,108.011 109.2252,109.566 109.2252,111.246 L109.2252,116.2 C109.2252,116.875 109.2462,117.449 109.3102,117.961 L107.5902,117.961 C107.5472,117.471 107.5262,116.979 107.5262,116.487 L107.4832,116.487 C106.6232,117.735 105.4632,118.207 103.9142,118.207 C102.0222,118.207 100.3882,117.184 100.3882,115.299 C100.3882,112.803 102.9042,111.942 105.9992,111.942 L107.4182,111.942 L107.4182,111.533 C107.4182,110.529 106.6452,109.485 104.9892,109.485 C103.5062,109.485 102.7972,110.079 102.0872,110.59 L100.9272,109.443 Z" id="Fill-23"></path>
            <polygon id="Fill-24" points="110.9229 108.2568 113.1579 108.2568 116.2119 115.6898 119.1349 108.2568 121.1989 108.2568 117.1999 117.9608 115.0719 117.9608"></polygon>
            <path d="M123.154,117.961 L125.09,117.961 L125.09,108.257 L123.154,108.257 L123.154,117.961 Z M124.123,103.425 C124.896,103.425 125.542,104.039 125.542,104.776 C125.542,105.514 124.896,106.127 124.123,106.127 C123.348,106.127 122.704,105.514 122.704,104.776 C122.704,104.039 123.348,103.425 124.123,103.425 L124.123,103.425 Z" id="Fill-25"></path>
            <path d="M128.2715,108.2568 L130.2065,108.2568 L130.2065,109.7498 L130.2485,109.7498 C130.7435,108.7268 132.0325,108.0108 133.6025,108.0108 C135.5805,108.0108 137.3005,109.1368 137.3005,111.7168 L137.3005,117.9608 L135.3655,117.9608 L135.3655,112.2288 C135.3655,110.4058 134.2695,109.7308 133.0425,109.7308 C131.4315,109.7308 130.2065,110.7128 130.2065,112.9658 L130.2065,117.9608 L128.2715,117.9608 L128.2715,108.2568 Z" id="Fill-26"></path>
            <path d="M141.9004,113.1094 C141.9004,115.0744 143.1904,116.3634 145.2544,116.3634 C147.3184,116.3634 148.6074,115.0744 148.6074,113.1094 C148.6074,111.1424 147.3184,109.7304 145.2544,109.7304 C143.1904,109.7304 141.9004,111.1424 141.9004,113.1094 L141.9004,113.1094 Z M150.5434,117.8794 C150.5434,120.8064 148.3064,122.8754 144.9744,122.8754 C143.0404,122.8754 141.4274,122.4044 139.9884,121.1344 L141.2984,119.5784 C142.3094,120.6034 143.4494,121.1544 144.9314,121.1544 C147.8124,121.1544 148.6074,119.4354 148.6074,117.7974 L148.6074,116.3634 L148.5434,116.3634 C147.8124,117.5314 146.4154,118.0844 145.0174,118.0844 C142.0294,118.0844 139.8164,115.9344 139.8374,113.1094 C139.8374,110.2424 141.8584,108.0104 145.0174,108.0104 C146.3944,108.0104 147.8124,108.6044 148.5654,109.6484 L148.6074,109.6484 L148.6074,108.2564 L150.5434,108.2564 L150.5434,117.8794 Z" id="Fill-27"></path>
            <path d="M158.9912,110.6934 C158.5392,110.1604 157.8742,109.7304 156.9062,109.7304 C156.0032,109.7304 155.2082,110.1194 155.2082,110.8154 C155.2082,111.9824 156.9492,112.1464 157.8092,112.3314 C159.4862,112.7184 160.7752,113.3344 160.7752,115.1564 C160.7752,117.3474 158.6702,118.2074 156.6472,118.2074 C154.9702,118.2074 153.7242,117.7974 152.7142,116.4874 L154.1762,115.3404 C154.7992,115.9344 155.5302,116.4874 156.6472,116.4874 C157.6372,116.4874 158.7122,116.0974 158.7122,115.2574 C158.7122,114.1524 157.0992,113.9494 156.2622,113.7634 C154.6052,113.3754 153.1432,112.8634 153.1432,111.0004 C153.1432,108.9724 155.1002,108.0104 157.0132,108.0104 C158.3692,108.0104 159.7652,108.4614 160.4962,109.6074 L158.9912,110.6934 Z" id="Fill-28"></path>
            <path d="M171.8682,116.2422 L174.9002,116.2422 C176.1462,116.2422 178.1892,115.8322 178.1892,113.7852 C178.1892,112.0642 176.9212,111.2052 174.9222,111.2052 L171.8682,111.2052 L171.8682,116.2422 Z M171.8682,109.4852 L174.6852,109.4852 C176.2532,109.4852 177.5222,108.8902 177.5222,107.3142 C177.5222,106.1682 176.7692,105.1842 175.1152,105.1842 L171.8682,105.1842 L171.8682,109.4852 Z M169.8052,103.4652 L175.0932,103.4652 C177.7372,103.4652 179.7152,104.6332 179.7152,107.0902 C179.7152,108.7482 178.6402,109.7932 177.0922,110.2832 L177.0922,110.3242 C178.9202,110.4472 180.3812,111.9822 180.3812,113.9282 C180.3812,116.5282 177.9952,117.9612 175.0282,117.9612 L169.8052,117.9612 L169.8052,103.4652 Z" id="Fill-29"></path>
            <path d="M188.4648,113.293 C186.6378,113.293 184.4008,113.6 184.4008,115.156 C184.4008,116.262 185.2608,116.732 186.5948,116.732 C188.7438,116.732 189.4968,115.219 189.4968,113.908 L189.4968,113.293 L188.4648,113.293 Z M183.0038,109.443 C184.0788,108.482 185.6268,108.011 187.0448,108.011 C190.0548,108.011 191.3028,109.566 191.3028,111.246 L191.3028,116.2 C191.3028,116.875 191.3228,117.449 191.3878,117.961 L189.6678,117.961 C189.6248,117.471 189.6038,116.979 189.6038,116.487 L189.5608,116.487 C188.7008,117.735 187.5398,118.207 185.9918,118.207 C184.1008,118.207 182.4668,117.184 182.4668,115.299 C182.4668,112.803 184.9818,111.942 188.0778,111.942 L189.4968,111.942 L189.4968,111.533 C189.4968,110.529 188.7228,109.485 187.0678,109.485 C185.5838,109.485 184.8748,110.079 184.1648,110.59 L183.0038,109.443 Z" id="Fill-30"></path>
            <path d="M194.2266,108.2568 L196.1606,108.2568 L196.1606,109.7498 L196.2036,109.7498 C196.6976,108.7268 197.9886,108.0108 199.5566,108.0108 C201.5356,108.0108 203.2546,109.1368 203.2546,111.7168 L203.2546,117.9608 L201.3206,117.9608 L201.3206,112.2288 C201.3206,110.4058 200.2246,109.7308 198.9976,109.7308 C197.3866,109.7308 196.1606,110.7128 196.1606,112.9658 L196.1606,117.9608 L194.2266,117.9608 L194.2266,108.2568 Z" id="Fill-31"></path>
            <polygon id="Fill-32" points="206.2861 102.4824 208.2211 102.4824 208.2211 112.4744 212.6061 108.2774 215.2931 108.2774 210.5431 112.6784 215.7021 117.9614 212.9511 117.9614 208.2211 112.9244 208.2211 117.9614 206.2861 117.9614"></polygon>
            <path d="M149.1797,45.9834 C148.7147,41.2724 148.5727,36.6864 146.7057,36.7204 C145.3307,36.7444 138.0207,41.8594 136.6017,36.3284 L136.6017,52.1394 L153.1447,52.1394 C150.5467,51.4644 149.4477,48.6904 149.1797,45.9834" id="Fill-33"></path>
            <path d="M187.7676,0 L136.6016,0 L136.6016,31.283 C136.8296,29.735 137.2236,27.913 137.8386,25.733 C146.5966,-5.277 183.4226,1.866 183.4226,1.866 C191.0066,28.211 170.6736,42.986 161.6466,49.304 C159.3206,50.932 157.3986,51.809 155.8156,52.14 L187.7676,52.14 L187.7676,0 Z" id="Fill-34"></path>
            <path d="M155.8154,52.1396 L153.1444,52.1396 C153.9014,52.3366 154.7864,52.3546 155.8154,52.1396" id="Fill-35"></path>
            <path d="M136.6016,36.3286 L136.6016,31.2826 C136.2696,33.5306 136.3036,35.1666 136.6016,36.3286" id="Fill-36"></path>
            <polygon id="Fill-37" points="154.3799 15.0786 157.1799 25.4356 143.9869 31.0686 157.2129 27.3256 153.7499 42.2306 159.1739 28.4096 169.4259 35.5476 160.3629 26.8356 175.4079 11.1596 159.6539 24.5606"></polygon>
        </g>
    </g>
</svg>