<?xml version="1.0" encoding="UTF-8"?>
<svg width="127px" height="127px" viewBox="0 0 127 127" version="1.1" xmlns="http://www.w3.org/2000/svg" xmlns:xlink="http://www.w3.org/1999/xlink">
    <!-- Generator: Sketch 43.1 (39012) - http://www.bohemiancoding.com/sketch -->
    <title>AIGA</title>
    <desc>Created with Sketch.</desc>
    <defs></defs>
    <g id="Page-1" stroke="none" stroke-width="1" fill="none" fill-rule="evenodd">
        <g id="AIGA" fill="#FFFFFF">
            <path d="M120.811,79.259 C120.71,79.259 105.389,79.258 105.389,79.258 C105.389,79.258 105.162,79.212 105.332,79.129 C105.509,79.035 110.47,77.45 110.853,77.334 C111.603,77.074 111.81,76.911 111.846,75.724 C111.867,74.583 112.181,67.863 112.182,67.455 C112.182,67.04 112.308,66.213 111.214,66.126 C110.694,66.083 109.005,65.942 107.231,65.895 C105.119,65.834 102.92,65.884 102.548,65.895 C101.36,65.916 101.061,65.992 100.389,66.509 C99.862,66.92 92.445,76.095 92.167,76.482 C91.871,76.911 91.95,77.366 92.723,77.615 C93.532,77.854 98.233,78.822 99.309,79.035 C99.464,79.071 99.432,79.258 99.215,79.258 L84.692,79.258 C84.537,79.258 84.556,79.085 84.664,79.034 C84.761,78.969 86.696,78.276 87.679,77.507 C88.185,77.189 115.742,47.148 116.223,46.693 C116.371,46.567 116.522,46.592 116.583,46.718 C116.699,46.953 116.287,75.467 116.298,75.923 C116.338,76.417 116.371,77.013 117.157,77.392 C117.901,77.738 120.645,78.92 120.984,79.053 C121.144,79.111 121.042,79.259 120.811,79.259 L120.811,79.259 Z M82.913,77.301 C82.493,77.449 77.492,79.374 72.629,79.514 C60.197,79.835 55.647,71.152 57.778,63.237 C58.894,59.08 61.627,55.174 65.094,52.437 C67.083,50.884 72.972,47.238 80.653,47.238 C82.104,47.238 85.823,47.411 88.528,48.129 C89.86,48.48 89.658,49.21 89.514,49.743 C89.43,50.015 86.509,58.81 86.422,59.023 C86.296,59.355 86.025,59.363 86.025,59.009 C86.015,58.818 86.383,51.015 86.365,50.694 C86.354,49.87 86.354,49.368 85.44,49.068 C84.162,48.66 78.042,48.129 73.546,50.227 C65.978,53.751 61.583,61.89 62.483,68.385 C63.205,73.734 67.455,78.095 74.217,78.276 C76.359,78.326 77.911,78.019 78.363,77.871 C79.053,77.673 79.135,77.474 79.29,77.085 C79.432,76.684 80.565,71.903 80.616,71.704 C80.652,71.502 80.948,70.838 80.251,70.639 C79.569,70.455 73.431,68.797 73.113,68.715 C72.788,68.632 72.932,68.465 73.174,68.465 C73.43,68.465 84.234,68.465 84.693,68.466 C85.159,68.466 86.364,68.35 86.043,69.502 C85.711,70.657 83.953,76.156 83.811,76.543 C83.667,76.932 83.342,77.146 82.913,77.301 L82.913,77.301 Z M53.944,49.339 C53.192,49.671 52.918,50.082 52.723,50.663 C52.582,51.14 46.75,75.7 46.664,76.131 C46.559,76.686 46.526,77.16 47.176,77.416 C47.837,77.679 51.152,78.853 51.419,78.962 C51.693,79.07 51.621,79.257 51.332,79.257 L37.045,79.257 C36.77,79.257 36.644,79.167 36.886,79.051 C37.185,78.918 40.323,77.787 40.637,77.672 C40.97,77.539 41.778,77.238 42.002,76.521 C42.168,75.986 48.163,51.288 48.263,50.815 C48.408,50.205 48.339,49.602 47.635,49.353 C47.26,49.212 43.587,47.955 43.458,47.916 C43.252,47.851 43.252,47.71 43.44,47.71 L58.432,47.71 C58.598,47.71 58.753,47.829 58.533,47.887 C58.309,47.945 55.86,48.678 55.597,48.75 C55.297,48.844 54.398,49.129 53.944,49.339 L53.944,49.339 Z M0.003,0 L0.001,79.044 C0.081,79.018 0.142,78.993 0.164,78.993 C0.269,78.935 2.193,78.275 3.182,77.506 C3.688,77.188 31.242,47.146 31.708,46.691 C31.864,46.565 32.026,46.591 32.099,46.717 C32.21,46.951 31.788,75.466 31.798,75.921 C31.834,76.416 31.877,77.011 32.665,77.391 C33.397,77.737 36.142,78.918 36.499,79.051 C36.64,79.11 36.542,79.257 36.311,79.257 L20.89,79.257 C20.89,79.257 20.663,79.21 20.828,79.127 C21.005,79.033 25.97,77.448 26.349,77.332 C27.101,77.072 27.313,76.91 27.342,75.722 C27.368,74.581 27.686,67.861 27.686,67.453 C27.686,67.038 27.812,66.211 26.704,66.124 C26.191,66.081 24.497,65.941 22.728,65.893 C20.623,65.832 18.42,65.883 18.052,65.893 C16.853,65.915 16.564,65.991 15.885,66.507 C15.358,66.919 7.953,76.093 7.667,76.48 C7.371,76.909 7.458,77.364 8.23,77.614 C9.036,77.852 13.73,78.82 14.806,79.033 C14.96,79.069 14.921,79.257 14.705,79.257 L0.193,79.257 C0.164,79.257 0.091,79.257 0.001,79.267 L0,126.926 L126.927,126.928 L126.929,0.002 L0.003,0 Z" id="Fill-17"></path>
            <path d="M18.9672946,63.8487202 C18.9672946,63.8487202 25.4412946,63.8677202 26.4912946,63.8677202 C27.5492946,63.8677202 27.8172946,63.4947202 27.8172946,62.8557202 C27.8172946,62.4267202 27.9442946,54.5837202 27.9442946,53.6917202 C27.9442946,52.8357202 27.4412946,52.7997202 26.8712946,53.4427202 C26.5822946,53.7747202 18.7072946,62.2457202 18.2702946,62.7187202 C17.8472946,63.1947202 17.8122946,63.8347202 18.9672946,63.8487202" id="Fill-19"></path>
            <path d="M111.87869,53.4431273 C111.57969,53.7751273 103.70769,62.2461273 103.27469,62.7181273 C102.84469,63.1951273 102.81269,63.8351273 103.96769,63.8491273 C103.96769,63.8491273 110.43369,63.8671273 111.48869,63.8671273 C112.53569,63.8671273 112.82069,63.4951273 112.82169,62.8571273 C112.82069,62.4261273 112.93669,54.5841273 112.93669,53.6921273 C112.93669,52.8361273 112.45669,52.7991273 111.87869,53.4431273" id="Fill-21"></path>
        </g>
    </g>
</svg>