<?xml version="1.0" encoding="UTF-8"?>
<svg width="184px" height="110px" viewBox="0 0 184 110" version="1.1" xmlns="http://www.w3.org/2000/svg" xmlns:xlink="http://www.w3.org/1999/xlink">
    <!-- Generator: Sketch 43.1 (39012) - http://www.bohemiancoding.com/sketch -->
    <title>JTB</title>
    <desc>Created with Sketch.</desc>
    <defs></defs>
    <g id="Page-1" stroke="none" stroke-width="1" fill="none" fill-rule="evenodd">
        <g fill="#FFFFFF">
            <path d="M170.809344,48.7616282 C175.931531,53.8785 179.758719,60.8787051 178.440594,68.6496282 C175.960438,80.5725769 166.294188,89.0939359 154.711453,91.5422692 C153.714188,91.7769615 148.143953,92.7186282 143.799344,92.7186282 L111.464813,92.7186282 L126.842938,31.2813974 L152.812313,22.3080385 L139.966375,73.7809872 C149.635516,73.6506026 156.13075,66.2969103 155.607547,59.5719615 C155.064109,52.8180385 151.826609,49.3324231 147.554266,47.4027308 C148.560203,47.031859 162.808094,37.9281154 159.833641,28.5085513 C156.708875,19.0716026 142.426297,20.3377821 134.135984,22.5021667 C127.860438,23.8233974 115.329578,27.729141 111.161297,29.5487308 L95.3553594,92.7186282 L70.66075,92.7186282 L83.8246563,40.0432436 C83.5240313,40.0287564 64.1973125,48.8485513 64.1973125,48.8485513 L70.7966094,22.2558846 C78.3989531,18.7992436 110.681453,5.72601282 131.372547,2.31573077 C159.252625,-2.26511538 176.891219,5.76947436 181.857313,19.5004231 C186.820516,33.2284744 179.776063,43.8417821 170.809344,48.7616282" id="Fill-1"></path>
            <path d="M36.3705435,39.5661279 L36.32475,39.7497333 L30.9973281,61.0690667 C28.254125,72.0097846 20.7182656,83.0779897 6.60623438,83.5618615 L0.00115625,109.94881 C2.3888125,109.94881 13.7287344,108.700015 23.8112344,104.684169 C39.1723389,98.2772585 51.0509036,87.0898382 55.798659,69.4475864 L55.9269453,69.6448974 L72.9469453,0.897435897 L46.0294453,0.897435897 L36.3689766,39.5637179 Z" id="Combined-Shape"></path>
        </g>
    </g>
</svg>