<?xml version="1.0" encoding="UTF-8"?>
<svg width="260px" height="108px" viewBox="0 0 260 108" version="1.1" xmlns="http://www.w3.org/2000/svg" xmlns:xlink="http://www.w3.org/1999/xlink">
    <!-- Generator: Sketch 43.1 (39012) - http://www.bohemiancoding.com/sketch -->
    <title>HOT</title>
    <desc>Created with Sketch.</desc>
    <defs></defs>
    <g id="Page-1" stroke="none" stroke-width="1" fill="none" fill-rule="evenodd">
        <g transform="translate(0.000000, -1.000000)" fill="#FFFFFF">
            <polygon id="Fill-1" points="68.5899512 107.79825 71.2148049 107.79825 71.2148049 98.0992115 68.5899512 98.0992115"></polygon>
            <polygon id="Fill-2" points="117.707817 98.099 117.707817 107.798038 127.1505 107.798038 127.1505 106.048615 120.290232 106.048615 120.290232 103.535538 126.282622 103.535538 126.282622 101.868615 120.290232 101.868615 120.290232 99.8061154 126.840695 99.8061154 126.840695 98.099"></polygon>
            <polygon id="Fill-3" points="62.2686585 107.79825 64.8935122 107.79825 64.8935122 98.0992115 62.2686585 98.0992115"></polygon>
            <g id="Group-45" transform="translate(0.000000, 0.245750)">
                <path d="M107.181241,99.5201731 L109.557827,99.5201731 C110.156217,99.5201731 110.623046,99.6301731 110.958315,99.8459423 C111.291461,100.061712 111.459095,100.421327 111.459095,100.924788 C111.459095,101.432481 111.291461,101.802673 110.958315,102.03325 C110.623046,102.268058 110.156217,102.384404 109.557827,102.384404 L107.181241,102.384404 L107.181241,99.5201731 Z M109.810339,104.053442 C111.18112,104.053442 112.235729,103.816519 112.974168,103.344788 C113.712607,102.868827 114.081827,102.062865 114.081827,100.920558 C114.081827,99.8755577 113.712607,99.1034423 112.967802,98.5999808 C112.22512,98.1049808 111.229924,97.85325 109.977973,97.85325 L104.55851,97.85325 L104.55851,107.554404 L107.181241,107.554404 L107.181241,104.053442 L109.810339,104.053442 Z" id="Fill-4"></path>
                <path d="M22.4192634,103.889288 L24.0574098,100.071019 L25.6488732,103.889288 L22.4192634,103.889288 Z M25.5767268,97.8519808 L22.5911415,97.8519808 L18.0841171,107.553135 L20.8447756,107.553135 L21.7020439,105.556212 L26.3427512,105.556212 L27.176678,107.553135 L30.0370683,107.553135 L25.5767268,97.8519808 Z" id="Fill-6"></path>
                <path d="M53.4434634,100.06975 L55.0349268,103.890135 L51.8053171,103.890135 L53.4434634,100.06975 Z M55.7309268,105.557058 L56.5627317,107.553981 L59.421,107.553981 L54.9606585,97.8528269 L51.9750732,97.8528269 L47.4680488,107.553981 L50.2308293,107.553981 L51.0880976,105.557058 L55.7309268,105.557058 Z" id="Fill-8"></path>
                <polygon id="Fill-10" points="0 93.7153462 0 107.554192 3.71978049 107.554192 3.71978049 101.375154 10.7837561 101.375154 10.7837561 107.554192 14.5035366 107.554192 14.5035366 93.7153462 10.7837561 93.7153462 10.7837561 98.9847692 3.71978049 98.9847692 3.71978049 93.7153462"></polygon>
                <polygon id="Fill-12" points="38.2458366 101.881365 38.6893244 100.005019 39.1349341 101.877135 40.6584951 107.554827 43.1836171 107.554827 46.7272756 97.8536731 44.0387634 97.8536731 42.358178 103.465788 41.9741049 104.955019 41.5900317 103.408673 40.0919341 97.8515577 37.3143 97.8515577 35.8968366 103.440404 35.5276171 104.955019 35.1690073 103.408673 33.488422 97.8515577 30.6853244 97.8515577 34.2799098 107.554827 36.7265195 107.554827"></polygon>
                <path d="M88.5138,96.9977885 C89.4113854,96.15375 90.6145317,95.7306731 92.123239,95.7306731 C93.6298244,95.7306731 94.8287268,96.1558654 95.7135805,97.0020192 C96.5984341,97.8460577 97.041922,99.0433654 97.041922,100.591827 C97.041922,102.150865 96.5984341,103.346058 95.7135805,104.187981 C94.8287268,105.034135 93.6298244,105.452981 92.123239,105.452981 C90.6145317,105.452981 89.4113854,105.034135 88.5138,104.187981 C87.6140927,103.346058 87.166361,102.150865 87.166361,100.591827 C87.166361,99.0391346 87.6140927,97.8375962 88.5138,96.9977885 M92.1083854,107.883558 C94.692922,107.883558 96.6663366,107.348365 98.0286293,106.277981 C99.8513854,104.962212 100.761702,103.066827 100.761702,100.591827 C100.761702,98.0681731 99.8513854,96.1727885 98.0286293,94.9099038 C96.6663366,93.8395192 94.692922,93.3000962 92.1083854,93.3000962 C89.5302146,93.3000962 87.5568,93.8395192 86.1923854,94.9099038 C84.3632634,96.1727885 83.4487024,98.0681731 83.4487024,100.591827 C83.4487024,103.066827 84.3632634,104.962212 86.1923854,106.275865 C87.5568,107.348365 89.5302146,107.883558 92.1083854,107.883558" id="Fill-14"></path>
                <path d="M242.677376,101.978462 C242.395156,102.086346 241.970766,102.137115 241.402083,102.137115 L238.554424,102.137115 L238.554424,99.5203846 L241.478473,99.5203846 C242.021693,99.5203846 242.429107,99.5775 242.702839,99.6938462 C243.186644,99.8969231 243.428546,100.2925 243.428546,100.880577 C243.428546,101.428462 243.178156,101.792308 242.677376,101.978462 M245.601424,101.97 C245.904863,101.525769 246.0534,101.075192 246.0534,100.614038 C246.0534,100.233269 245.974888,99.8926923 245.819985,99.5944231 C245.665083,99.2982692 245.452888,99.0253846 245.1834,98.7778846 C244.860863,98.4817308 244.46618,98.2553846 244.003595,98.1030769 C243.536766,97.9486538 242.872595,97.8682692 242.011083,97.8534615 L235.97201,97.8534615 L235.97201,107.554615 L238.554424,107.554615 L238.554424,103.742692 L241.145327,103.742692 C241.885888,103.742692 242.38879,103.848462 242.658278,104.051538 C242.927766,104.258846 243.067815,104.671346 243.078424,105.293269 L243.0954,106.196538 C243.099644,106.482115 243.135717,106.763462 243.20362,107.036346 C243.237571,107.163269 243.292741,107.336731 243.371254,107.554615 L246.259229,107.554615 L246.259229,107.311346 C246.002473,107.192885 245.841205,107.006731 245.77118,106.757115 C245.72662,106.598462 245.701156,106.298077 245.701156,105.853846 L245.701156,105.200192 C245.701156,104.519038 245.582327,104.013462 245.340424,103.683462 C245.102766,103.349231 244.693229,103.095385 244.11818,102.915577 C244.807815,102.729423 245.302229,102.416346 245.601424,101.97" id="Fill-16"></path>
                <polygon id="Fill-18" points="229.177946 107.554192 229.177946 99.5622692 232.980483 99.5622692 232.980483 97.8530385 222.712361 97.8530385 222.712361 99.5622692 226.512776 99.5622692 226.512776 107.554192"></polygon>
                <path d="M216.539605,100.06975 L218.131068,103.890135 L214.901459,103.890135 L216.539605,100.06975 Z M218.824946,105.557058 L219.656751,107.553981 L222.517141,107.553981 L218.0568,97.8528269 L215.069093,97.8528269 L210.56419,107.553981 L213.326971,107.553981 L214.184239,105.557058 L218.824946,105.557058 Z" id="Fill-20"></path>
                <polygon id="Fill-22" points="259.223078 99.5614231 259.223078 97.8521923 250.0902 97.8521923 250.0902 107.553346 259.530761 107.553346 259.530761 105.803923 252.672615 105.803923 252.672615 103.290846 258.662883 103.290846 258.662883 101.623923 252.672615 101.623923 252.672615 99.5614231"></polygon>
                <path d="M149.980998,100.06975 L151.572461,103.890135 L148.344973,103.890135 L149.980998,100.06975 Z M152.268461,105.557058 L153.100266,107.553981 L155.958534,107.553981 L151.500315,97.8528269 L148.512607,97.8528269 L144.007705,107.553981 L146.768363,107.553981 L147.627754,105.557058 L152.268461,105.557058 Z" id="Fill-25"></path>
                <polygon id="Fill-27" points="175.730239 107.554192 175.730239 96.1416923 181.143337 96.1416923 181.143337 93.7132308 166.514605 93.7132308 166.514605 96.1416923 171.927702 96.1416923 171.927702 107.554192"></polygon>
                <polygon id="Fill-29" points="184.18282 97.8530385 184.18282 107.554192 186.807673 107.554192 186.807673 103.230346 191.705137 103.230346 191.705137 107.554192 194.327868 107.554192 194.327868 97.8530385 191.705137 97.8530385 191.705137 101.561308 186.807673 101.561308 186.807673 97.8530385"></polygon>
                <polygon id="Fill-31" points="207.518129 99.5614231 207.518129 97.8521923 198.385251 97.8521923 198.385251 107.553346 207.827934 107.553346 207.827934 105.803923 200.967666 105.803923 200.967666 103.290846 206.960056 103.290846 206.960056 101.623923 200.967666 101.623923 200.967666 99.5614231"></polygon>
                <path d="M137.565249,101.978462 C137.283029,102.086346 136.858639,102.137115 136.292078,102.137115 L133.442298,102.137115 L133.442298,99.5203846 L136.366346,99.5203846 C136.909566,99.5203846 137.319102,99.5775 137.58859,99.6938462 C138.074517,99.8969231 138.318541,100.2925 138.318541,100.880577 C138.318541,101.428462 138.068151,101.794423 137.565249,101.978462 M140.49142,101.972115 C140.792737,101.525769 140.941273,101.075192 140.941273,100.614038 C140.941273,100.235385 140.862761,99.8926923 140.707859,99.5944231 C140.552956,99.2982692 140.340761,99.0253846 140.073395,98.7778846 C139.748737,98.4817308 139.354054,98.2553846 138.891468,98.1051923 C138.424639,97.9486538 137.76259,97.8682692 136.898956,97.8534615 L130.859883,97.8534615 L130.859883,107.554615 L133.442298,107.554615 L133.442298,103.742692 L136.0332,103.742692 C136.771639,103.742692 137.278785,103.848462 137.546151,104.051538 C137.813517,104.258846 137.955688,104.671346 137.966298,105.293269 L137.983273,106.196538 C137.989639,106.482115 138.02359,106.763462 138.091493,107.034231 C138.125444,107.165385 138.182737,107.336731 138.259127,107.554615 L141.147102,107.554615 L141.147102,107.311346 C140.892468,107.192885 140.729078,107.006731 140.659054,106.757115 C140.614493,106.598462 140.591151,106.298077 140.591151,105.853846 L140.591151,105.200192 C140.591151,104.519038 140.4702,104.013462 140.23042,103.683462 C139.990639,103.351346 139.581102,103.095385 139.006054,102.915577 C139.695688,102.729423 140.192224,102.416346 140.49142,101.972115" id="Fill-33"></path>
                <polygon id="Fill-35" points="53.3377902 41.2624808 38.1828146 41.2645962 38.1828146 21.4815192 16.2227415 21.4815192 16.2227415 75.2545962 38.1828146 75.2545962 38.1828146 55.3467115 53.3377902 55.3467115 53.3377902 75.2545962 75.2978634 75.2545962 75.2978634 21.4815192 53.3377902 21.4815192"></polygon>
                <polygon id="Fill-37" points="246.420922 20.9080385 195.182166 20.9080385 195.182166 34.9880385 209.821507 34.9880385 209.821507 75.2543846 231.78158 75.2543846 231.78158 34.9880385 246.420922 34.9880385"></polygon>
                <path d="M159.340076,43.9354808 C159.123637,27.67875 145.358539,19.4858654 134.564173,19.3610577 C123.769807,19.4858654 110.006832,27.67875 109.790393,43.9354808 C110.006832,60.1900962 123.769807,68.3829808 134.564173,68.5077885 C145.358539,68.3829808 159.123637,60.1900962 159.340076,43.9354808" id="Fill-39"></path>
                <path d="M134.950156,77.3376154 L134.950156,77.3503077 C134.818595,77.3503077 134.695522,77.3418462 134.563961,77.3418462 C134.434522,77.3418462 134.311449,77.3503077 134.179888,77.3503077 L134.179888,77.3376154 C107.884668,77.3376154 92.061278,66.2128077 86.9601073,53.2455 L85.7654488,53.2455 L85.7654488,86.9033846 L183.366717,86.9033846 L183.366717,53.2476154 L182.634644,53.2476154 C178.717522,66.1556923 165.673888,77.1514615 134.950156,77.3376154" id="Fill-41"></path>
                <path d="M183.366505,0.87175 L85.7652366,0.869634615 L85.7652366,34.6184808 L86.4973098,34.6184808 C90.4144317,21.7125192 103.458066,10.7146346 134.179676,10.5305962 L134.179676,10.5221346 C134.311237,10.5221346 134.43431,10.52425 134.563749,10.52425 C134.69531,10.52425 134.818383,10.5221346 134.949944,10.5221346 L134.949944,10.5305962 C160.723163,10.5305962 176.877578,21.6554038 182.116676,34.6184808 L183.366505,34.6184808 L183.366505,0.87175 Z" id="Fill-43"></path>
            </g>
        </g>
    </g>
</svg>