<?xml version="1.0" encoding="UTF-8"?>
<svg width="446px" height="52px" viewBox="0 0 446 52" version="1.1" xmlns="http://www.w3.org/2000/svg" xmlns:xlink="http://www.w3.org/1999/xlink">
    <!-- Generator: Sketch 43.1 (39012) - http://www.bohemiancoding.com/sketch -->
    <title>PIMCO</title>
    <desc>Created with Sketch.</desc>
    <defs></defs>
    <g id="Page-1" stroke="none" stroke-width="1" fill="none" fill-rule="evenodd">
        <g id="PIMCO" fill-rule="nonzero" fill="#FFFFFF">
            <path d="M23.38383,23.96642 C24.44213,24.25282 25.79731,24.54621 27.33411,24.54621 C35.09146,24.54621 40.87193,20.98013 40.87193,13.72923 C40.87193,7.33753 35.09146,4.33727 26.52379,4.33727 C23.91123,4.33727 20.8516,4.69353 18.78041,5.19299 C18.68261,7.89287 18.40669,12.30419 18.40669,29.37666 C18.40669,45.85187 18.68261,46.49803 19.68503,47.21404 C20.49534,47.77986 23.20221,48.13262 26.70192,48.13262 L26.98134,48.35267 L26.98134,50.39941 L26.70192,50.61945 C22.10898,50.48323 17.78149,50.27017 13.45749,50.27017 C9.11952,50.27017 4.78155,50.48323 0.27592,50.61945 L0,50.39941 L0,48.35267 L0.27592,48.13262 C3.70578,48.13262 6.40916,47.77986 7.22646,47.21404 C8.2149,46.49803 8.48733,45.85187 8.48733,29.37666 L8.48733,22.18163 C8.48733,5.68896 8.2149,5.05328 7.22646,4.33727 C6.40916,3.77145 3.70578,3.41519 0.27592,3.41519 L0,3.21611 L0,1.14492 L0.27592,0.93535 C4.78155,1.07856 9.11952,1.28113 13.45749,1.28113 C18.87122,1.28113 24.26749,0.93535 29.32496,0.93535 C42.32491,0.93535 51.16501,2.92621 51.16501,12.59758 C51.16501,21.69265 41.95817,27.52202 30.04447,27.52202 C27.14899,27.52202 25.08479,27.22863 23.74707,27.03304 L22.56653,24.59511 L23.38383,23.96642 L23.38383,23.96642 Z" id="path240"></path>
            <path d="M91.23816,1.14596 L91.5071,0.93291 C96.02669,1.07611 100.35419,1.28218 104.69914,1.28218 C109.02664,1.28218 113.35413,1.07611 117.87023,0.93291 L118.13917,1.14596 L118.13917,3.21715 L117.87023,3.41624 C114.43688,3.41624 111.72652,3.769 110.91271,4.33832 C109.93125,5.05433 109.65882,5.68651 109.65882,22.17919 L109.65882,29.37771 C109.65882,45.84942 109.93125,46.49907 110.91271,47.21508 C111.72652,47.7809 114.43688,48.13367 117.87023,48.13367 L118.13917,48.34673 L118.13917,50.40744 L117.87023,50.62049 C113.35413,50.48079 109.02664,50.27122 104.69914,50.27122 C100.35419,50.27122 96.02669,50.48079 91.5071,50.62049 L91.23816,50.40744 L91.23816,48.34673 L91.5071,48.13367 C94.94394,48.13367 97.65081,47.7809 98.45763,47.21508 C99.44957,46.49907 99.71152,45.84942 99.71152,29.37771 L99.71152,22.17919 C99.71152,5.68651 99.44957,5.05433 98.45763,4.33832 C97.65081,3.769 94.94394,3.41624 91.5071,3.41624 L91.23816,3.21715 L91.23816,1.14596 L91.23816,1.14596 Z" id="path244"></path>
            <path d="M159.08027,1.14596 L159.34921,0.93291 C163.86182,1.07611 166.03429,1.28218 170.00204,1.28218 C172.8067,1.28218 175.96413,1.07611 177.60222,0.93291 C185.99525,15.42774 197.54571,33.20923 201.33183,39.17831 C209.55023,26.46826 217.4892,13.79314 225.34785,0.93291 C227.76831,1.07611 231.03751,1.28218 233.64658,1.28218 C236.25565,1.28218 239.95095,1.07611 242.48318,0.93291 L242.74863,1.14596 L242.74863,3.21366 L242.48318,3.41624 C239.04983,3.41624 236.34995,3.769 235.53964,4.33832 C234.51627,5.05433 234.26828,5.68651 234.26828,22.17919 L234.26828,29.37771 C234.26828,45.84942 234.51627,46.49907 235.53964,47.21508 C236.34995,47.7809 239.04983,48.13367 242.48318,48.13367 L242.74863,48.34673 L242.74863,50.40744 L242.48318,50.62049 C237.98105,50.48079 233.64658,50.27122 229.29813,50.27122 C224.98111,50.27122 220.64314,50.48079 216.14101,50.62049 L215.84762,50.40744 L215.84762,48.34673 L216.14101,48.13367 C219.56738,48.13367 222.28472,47.7809 223.07059,47.21508 C224.06602,46.49907 224.3594,45.84942 224.3594,29.37771 L224.3594,11.87563 L224.15683,11.87563 C215.48787,25.03974 201.33183,46.71562 199.35844,51.53908 L197.44791,51.53908 C195.00999,45.84942 177.14118,19.12654 172.62857,11.87563 L172.45393,11.87563 L172.45393,29.37771 C172.45393,45.84942 172.7124,46.49907 173.71132,47.21508 C174.51464,47.7809 177.225,48.13367 180.3999,48.13367 L180.66884,48.34673 L180.66884,50.40744 L180.3999,50.62049 C177.04338,50.48079 173.62051,50.27122 170.28495,50.27122 C166.66997,50.27122 162.96069,50.48079 159.34921,50.62049 L159.08027,50.40744 L159.08027,48.34673 L159.34921,48.13367 C162.78955,48.13367 165.5034,47.7809 166.31022,47.21508 C167.29517,46.49907 167.5711,45.84942 167.5711,29.37771 L167.5711,22.17919 C167.5711,5.68651 167.29517,5.05433 166.31022,4.33832 C165.5034,3.769 162.78955,3.41624 159.34921,3.41624 L159.08027,3.21715 L159.08027,1.14596 L159.08027,1.14596 Z" id="path248"></path>
            <path d="M337.55741,43.93681 C336.82044,45.28849 336.17778,46.64018 335.53861,47.99187 C329.69876,50.20276 322.91937,51.54048 314.69749,51.54048 C296.89853,51.54048 279.83305,43.01822 279.83305,26.25311 C279.83305,10.30879 293.49661,0.00175 316.0352,0.00175 C323.53759,0.00175 333.12863,1.57347 336.99159,2.63876 L337.55741,3.14171 C336.28955,6.11752 335.76214,11.39154 335.82501,13.16934 L335.53861,13.37541 L332.66759,13.37541 L332.39864,13.16934 C332.39864,11.39154 332.12621,9.60676 331.86775,7.82896 C329.69876,5.76475 322.91937,3.41414 314.86863,3.41414 C298.00573,3.41414 290.49286,13.94123 290.49286,23.74882 C290.49286,36.69637 299.9896,47.28284 319.40569,47.28284 C324.71813,47.28284 331.4102,46.14072 336.45371,43.45481 L337.55741,43.93681 Z" id="path252"></path>
            <path d="M411.2425,3.41589 C398.51149,3.41589 388.97285,11.01607 388.97285,22.82499 C388.97285,38.25937 399.39166,48.13332 413.01681,48.13332 C427.75962,48.13332 434.88828,38.46894 434.88828,26.96039 C434.88828,8.67594 421.07104,3.41589 411.2425,3.41589 M412.76533,-5.68434189e-14 C430.98341,-5.68434189e-14 445.52714,7.76434 445.52714,24.54691 C445.52714,39.46087 431.07422,51.53873 410.49156,51.53873 C385.86781,51.53873 378.30954,37.39667 378.30954,25.39564 C378.30954,9.46181 393.37369,-1.13686838e-13 412.76533,-1.13686838e-13" id="path256"></path>
        </g>
    </g>
</svg>