<?xml version="1.0" encoding="utf-8"?>
<!-- Generator: Adobe Illustrator 16.0.0, SVG Export Plug-In . SVG Version: 6.00 Build 0)  -->
<!DOCTYPE svg PUBLIC "-//W3C//DTD SVG 1.1//EN" "http://www.w3.org/Graphics/SVG/1.1/DTD/svg11.dtd">
<svg version="1.1" id="Layer_1" xmlns="http://www.w3.org/2000/svg" xmlns:xlink="http://www.w3.org/1999/xlink" x="0px" y="0px"
	 width="100px" height="86px" viewBox="0 0 100 86" enable-background="new 0 0 100 86" xml:space="preserve">
<g id="XMLID_2_">
	<g>
		<path d="M98.615,39.758c0.295,0.279,0.4,0.747,0.383,1.339c-0.248,0.514-0.666,0.117-0.957,0.191
			c-0.356,0.091-0.655,0.634-1.339,0.382c-0.301,0.337-0.879,0.398-0.956,0.957c-0.825-0.024-1.472-0.453-1.721,0.382
			c-0.243-0.266-0.937-0.082-0.957-0.574c-0.321,0.316-1.124,0.153-0.956,0.956c-0.26-0.058-0.16-0.478-0.191-0.765
			c-0.566-0.029-1.351,0.555-1.53-0.191c-0.528-0.082-0.18,0.713-0.574,0.765c-0.667,0.171-0.327-0.624-0.191-0.765
			c-1.557-0.345-1.164,1.258-2.295,1.339c0.028-0.474,0.036-0.927-0.382-0.957c-0.938-0.105-0.915,0.743-1.338,1.147
			c-0.325-0.07-0.362,0.15-0.383,0.383c-0.243-0.331-0.646-0.501-0.574-1.148c-0.488,0.213-1.329,0.076-1.53,0.574
			c-1.233-0.464-1.65,0.383-2.869,0c0.027-0.474-0.1-0.793-0.382-0.957c-0.899-0.133-0.757,0.775-1.339,0.957
			c-0.447,0-0.893,0-1.339,0c-0.022-0.361-0.631-0.131-0.573-0.574c-0.477,0.021-0.592,0.358-0.957,0
			c-0.276,0.108-0.467,0.299-0.574,0.574c-0.847-0.188-0.5-0.029-1.148,0.191c-0.719-0.46-1.292-0.287-2.294-0.191
			c0.014-0.65,0.059-1.333-0.383-1.53c0.363-0.53,1.394-0.391,1.339-1.339c0.496,0.205,1.281,0.122,1.53,0.574
			c0.179-0.14,0.289-0.347,0.382-0.574c1.379-0.052,2.304,0.437,3.06-0.382c1.445,0.316,2.911,0.482,4.208-0.191
			c0.604,0.227,1.062,0.595,1.53,0.957c0.367-0.081,0.823-0.068,0.765-0.574c0.677,0.336,0.47-0.126,1.147-0.191
			c0.587,0.05,0.861,0.416,1.339,0.574c0.587,0.144,0.366-0.524,0.956-0.382c0.576,0.372,1.077,0.334,2.295,0.191
			c0.797-0.091,1.157-0.301,1.721,0.383c0.383-0.55,0.976-0.179,1.722-0.191c0.388-0.004,1.027-0.324,1.53-0.382
			c0.663-0.076,1.509,0.229,1.721-0.574C97.195,40.457,97.853,39.908,98.615,39.758z"/>
		<path d="M83.89,17C83.869,16.768,84.168,16.882,83.89,17L83.89,17z"/>
		<path d="M82.168,15.852c0.709,0.247,0.709,1.203,1.722,1.148c-0.844,1.833-3.19,2.011-4.399,3.633
			c-0.092,0.124-0.144,0.471-0.191,0.574c-0.429,0.926-0.835,1.783-1.722,2.104c-0.561,0.05-0.588-0.433-1.147-0.383
			c-0.744,0.086-0.783,0.875-1.148,1.339c-2.058,0.365-3.265,1.582-4.59,2.678c0.138,0.585-0.195,0.697-0.191,1.148
			c-1.251,0.979-1.945,2.517-3.443,3.25c0.199,1.587,1.764,2.825,1.147,4.59c0.393,0.501,0.6,1.185,0.574,2.104
			c0.453,0.376,0.71,0.948,0.957,1.53c0.166,0.74-0.467,0.682-0.574,1.147c-0.14,0.586,0.331,0.563,0.191,1.147
			c-0.654,0.713-0.341,1.677-0.574,2.487c-0.289,1.002-1.003,2.185-1.53,3.251c-0.444,0.897-0.82,1.711-1.339,2.295
			c-0.459,0.52-0.551,0.584-0.956,0.765c-0.055,0.025-0.129,0.337-0.191,0.383c-0.75,0.575-1.32,1.117-2.104,1.339
			c-0.493,0.659-1.32,1.989-2.295,1.529c-0.53,0.812-1.042,1.636-1.913,2.104c-2.617-0.616-3.218,1.686-4.972,2.485
			c-0.287-0.031-0.705,0.07-0.765-0.191c-0.491,0.148-0.811,0.467-0.956,0.957c-0.42-0.423-0.78,0.188-1.53,0
			c-0.792,0.165-0.973,0.939-1.721,1.147c-0.283-0.098-0.482-0.283-0.765-0.383c-0.454,0.312-1.1,0.431-1.53,0.765
			c-1.805-0.141-3.946,0.046-5.164-0.765c-0.507,0.002-1.091-0.071-1.338,0.191c-0.417,0.035-0.607-0.155-0.574-0.574
			c-0.721,0.147-0.914-0.232-1.53-0.19c-0.336-0.49-0.719-0.937-1.147-1.339c-0.757-0.247-0.391,0.629-1.147,0.382
			c-0.038-1.046-0.787-1.378-0.956-2.295c-0.022-0.677-0.632,0.407-0.574-0.19c-0.375-0.357-0.06-0.699,0-1.147
			c-0.829-0.189-1.062,0.215-1.53,0.382c-1.006-0.142-0.793-1.5-1.722-1.721c-0.104-0.678,0.678-0.471,0.574-1.147
			c-0.374-0.582-1.251-0.662-1.912-0.957c-0.331-0.649,0.147-1.121,0-2.104c-0.028-0.416-0.482-0.41-0.957-0.382
			c0.167-1.074-1.225-1.898-1.147-3.061c0.066-0.989,1.008-1.002,1.147-2.104c-0.255-0.887-0.446,0.442-0.956-0.191
			c0.647-1.63,1.544-3.208,0.956-5.546c-0.074-0.627-0.56-0.843-0.765-1.338c-0.034-0.797,0.593-0.937,0.765-1.53
			c-0.081-0.365-0.546-0.345-0.382-0.956c0.476-0.927,0.813-1.991,2.295-1.913c0.753-0.331,0.763-1.405,0.956-2.295
			c0.472-0.078,0.399-0.542,0.765-0.765c0.337-0.206,1.004-0.136,1.339-0.382c0.502-0.372,0.675-0.854,0.956-1.147
			c0.158-0.164,0.058-0.158,0.191-0.383c0.354-0.592,0.853-0.927,1.338-1.147c0.07-0.031,0.108-0.338,0.191-0.383
			c0.499-0.251,1.32-0.172,1.913-0.383c0.229-0.082,0.454-0.242,0.765-0.382c0.427-0.402,0.651-1.006,1.148-1.339
			c0.837,0.199,0.814,0.018,1.53-0.191c1.391-0.402,2.176-0.526,2.869-1.338c0.51,0,1.02,0,1.53,0c0.7-0.13,0.933-0.723,1.53-0.957
			c0.484,0.054,1.084,0.823,1.338,0c0.146,0.301,0.607,0.287,0.574,0.765c0.401,0.032,0.544-0.496,0.765-0.574
			c0.187-0.065,0.154,0.186,0.191,0.191c0.17,0.034,0.179-0.189,0.191-0.191c0.686-0.038,1.381,0.482,2.104,0.382
			c0.823-0.113,0.977-0.488,1.721-0.765c0.351,0.415,0.428,1.102,0.956,1.338c0.574,0,1.147,0,1.721,0
			c0.829,0.446,1.565,0.988,2.869,0.957c0.971,0.687,1.728,1.589,3.06,1.913c0.193,0.764,1.074,0.838,1.147,1.722
			c0.055,0.394,0.511,0.382,0.765,0.574c0.168,0.661,0.333,1.324,0.765,1.721c1.075,0.181,0.788-0.999,1.148-1.53
			c0.25-0.708,0.634-1.278,0.766-2.104c0.833-0.06,1.283-0.502,2.104-0.574c0.302-0.398,0.624-0.779,0.765-1.339
			c1.082,0.19,1.032-0.753,1.53-1.147c0.745,0.223,1.616-0.536,2.486-0.765c0.432-0.587,0.965-1.071,1.147-1.912
			c0.273,0.046,0.323,0.317,0.574,0.382c0.602-0.398,0.114-0.779,0.383-1.339c0.757-0.199,1.125-0.787,2.104-0.765
			c0.545-0.411,1.002-0.911,1.721-1.147c0.518,0.055,0.9,0.247,1.147,0.574C81.425,16.895,81.877,16.454,82.168,15.852z
			 M66.294,42.818c0.074-0.655-0.052-1.287,0-2.104c-0.699-0.659-0.914-1.848-0.766-2.486c0.25-1.062-0.537-1.835-0.765-2.486
			c-0.258-0.744-0.294-1.413-0.574-2.104c-0.295-0.276-0.744-0.401-1.147-0.574c-0.226-1.367-1.542-1.644-1.912-2.869
			c-0.6-0.166-1.057-0.473-1.339-0.956c-0.225-0.603-0.595-1.062-0.956-1.53c-1.065-0.017-1.547-0.618-2.295-0.957
			c-0.318,0-0.637,0-0.957,0c-0.518-0.564-0.884-1.282-1.721-1.53c-0.677-0.104-0.47,0.677-1.147,0.574
			c-0.507-0.193-0.518-0.885-0.956-1.147c-0.034,0.605-0.757,0.52-1.339,0.574c-0.098-0.477,0.006-1.153-0.574-1.148
			c-1.131,0.144-1.904,0.646-2.677,1.148c-1.38-0.58-2.012,0.587-3.251,0.382c-0.436,0.329-0.609,0.922-1.147,1.148
			c-0.836,0.439-1.915,0.635-2.869,0.957c-0.022,0.489-0.351,0.669-0.574,0.957c-0.663-0.154-0.735,0.284-1.338,0.191
			c-0.283,0.628-1.062,0.628-1.53,0.957c-0.603,0.421-0.896,1.226-1.721,1.338c-0.243,0.649-0.689,1.096-1.339,1.339
			c-0.249,1.089-0.624,2.054-1.338,2.677c0.146,1.611-0.695,2.237-1.339,3.06c-0.158,1.908,0.495,3.438-0.382,4.59
			c0.814,0.219,0.133,0.896,0.191,1.339c0.04,0.31,0.316,0.646,0.383,0.956c0.305,1.433,0.147,2.987,0.574,4.207
			c1.468,0.064,1.771,1.291,1.912,2.678c2.135,0.096,2.087,2.374,4.208,2.486c-0.054,0.437,0.046,0.719,0.383,0.765
			c-0.024-0.343,0.189-0.446,0.573-0.382c0.378,0.133,0.51,0.509,0.574,0.956c1.917,0.527,3.64,1.159,5.738,0.573
			c0.295,0.655,1.087,0.345,1.147,0.383c0.124,0.081-0.106,0.653,0.191,0.573c0.56-0.812,2.006-1.642,3.251-1.147
			c0.04-1.107,1.052-1.241,2.295-1.147c0.032-0.284-0.067-0.705,0.191-0.765c0.609-0.164,0.592,0.303,0.956,0.383
			c1.632-0.663,2.511-2.079,4.972-1.913c0.156-0.479,0.515-0.761,0.765-1.147c0.245,0.013,0.266,0.245,0.574,0.191
			c0.569-0.767,1.588-1.087,2.104-1.912c0.333-0.015,0.596,0.044,0.765,0.191c0.236-1.293,0.85-2.21,1.53-3.061
			c0.461-0.077,0.417,0.352,0.956,0.191c-0.104-0.971,0.862-1.428,1.147-2.104c0.166-0.393,0.061-1,0.191-1.53
			C66.002,43.222,66.262,43.101,66.294,42.818z"/>
		<path d="M67.25,70.932c0.03,0.476-0.3,0.594-0.383,0.956c0.006,0.835,0.114,1.773-0.383,2.104c-1.241,0.03-1.272-1.15-2.486-1.148
			c-0.258-1.27-0.476-2.581-1.912-2.677c-0.096-1.179-0.258-2.291-1.147-2.677c0.17-0.402,0.582-0.564,0.574-1.147
			c-0.551-0.554-0.597,0.371-1.339,0.19c-0.103-2-1.252-2.954-1.721-4.59c0.419-0.111,0.285-0.416,0.574-0.573
			c-0.069,0.04,0.658,0.359,0.574-0.191c0.243-0.644-0.969-0.788-1.147-0.383c-0.878-1.527,0.004-2.701-0.574-4.207
			c0.453-0.376,1.712,0.054,2.104-0.383c0.419,0.348,0.032,1.499,0.382,1.913c0.769,0.378,0.858,1.438,0.956,2.486
			c0.06,0.261,0.479,0.159,0.765,0.19c-0.04,1.188,0.261,2.036,1.147,2.295c0.293,0.934-0.555,0.722-0.574,1.339
			c0.168,0.983,1.409,0.889,1.912,1.53c0.135,1.332,0.814,2.118,1.722,2.678C66.386,69.629,65.95,71.151,67.25,70.932z"/>
		<path fill="#FFF200" d="M66.294,40.714c-0.052,0.817,0.074,1.448,0,2.104c-0.032,0.283-0.292,0.404-0.383,0.765
			c-0.131,0.53-0.025,1.138-0.191,1.53c-0.285,0.676-1.252,1.133-1.147,2.104c-0.539,0.16-0.495-0.269-0.956-0.191
			c-0.68,0.851-1.293,1.768-1.53,3.061c-0.169-0.147-0.433-0.206-0.765-0.191c-0.516,0.825-1.534,1.146-2.104,1.912
			c-0.308,0.054-0.329-0.179-0.574-0.191c-0.25,0.387-0.609,0.668-0.765,1.147c-2.461-0.166-3.34,1.25-4.972,1.913
			c-0.364-0.08-0.347-0.547-0.956-0.383c-0.259,0.06-0.159,0.48-0.191,0.765c-1.243-0.094-2.255,0.04-2.295,1.147
			c-1.245-0.494-2.692,0.335-3.251,1.147c-0.297,0.08-0.067-0.492-0.191-0.573c-0.06-0.038-0.853,0.272-1.147-0.383
			c-2.098,0.586-3.821-0.046-5.738-0.573c-0.064-0.447-0.195-0.823-0.574-0.956c-0.384-0.064-0.597,0.039-0.573,0.382
			c-0.337-0.046-0.437-0.328-0.383-0.765c-2.12-0.112-2.072-2.391-4.208-2.486c-0.141-1.387-0.444-2.613-1.912-2.678
			c-0.426-1.22-0.269-2.774-0.574-4.207c-0.066-0.31-0.343-0.646-0.383-0.956c-0.058-0.443,0.624-1.121-0.191-1.339
			c0.877-1.151,0.225-2.682,0.382-4.59c0.644-0.823,1.484-1.449,1.339-3.06c0.715-0.624,1.089-1.588,1.338-2.677
			c0.649-0.243,1.096-0.689,1.339-1.339c0.825-0.112,1.119-0.917,1.721-1.338c0.468-0.328,1.247-0.328,1.53-0.957
			c0.603,0.093,0.675-0.345,1.338-0.191c0.223-0.287,0.552-0.468,0.574-0.957c0.954-0.322,2.033-0.517,2.869-0.957
			c0.538-0.226,0.711-0.819,1.147-1.148c1.239,0.205,1.871-0.962,3.251-0.382c0.773-0.502,1.546-1.004,2.677-1.148
			c0.58-0.005,0.476,0.671,0.574,1.148c0.582-0.054,1.305,0.032,1.339-0.574c0.438,0.263,0.449,0.955,0.956,1.147
			c0.678,0.103,0.47-0.677,1.147-0.574c0.837,0.249,1.204,0.966,1.721,1.53c0.319,0,0.638,0,0.957,0
			c0.748,0.338,1.229,0.94,2.295,0.957c0.361,0.468,0.731,0.927,0.956,1.53c0.282,0.483,0.739,0.79,1.339,0.956
			c0.369,1.225,1.686,1.501,1.912,2.869c0.403,0.173,0.852,0.298,1.147,0.574c0.28,0.691,0.316,1.36,0.574,2.104
			c0.228,0.651,1.014,1.424,0.765,2.486C65.38,38.867,65.595,40.055,66.294,40.714z M60.557,41.67
			c0.105-0.466,0.739-0.407,0.574-1.147c-0.167-0.654-1.179-0.609-1.53-0.765c-0.131-0.058-0.507-0.076-0.765-0.191
			c-0.719-0.319-1.219-1.064-1.721-1.147c-1.013-0.168-2.258-0.128-2.486,1.147c0.004,0.458,0.552,0.418,0.765,0.574
			c0.299,0.219,0.536,0.536,0.765,0.765c0.146,0.813,0.447,1.466,0.383,2.486c-0.94,1.418-1.829,2.891-3.825,3.252
			c-0.402,0.809-1.258,1.163-1.913,1.721c-0.173-0.168-0.563-0.031-1.147-0.191c-0.669,0.241-0.996,0.961-1.913,1.147
			c-1.719,0.354-3.805-0.416-4.781-1.147c-1.022,0.002-1.773-0.268-1.721-1.339c0.149-0.422,1.183,0.038,0.956-0.765
			c-0.518-0.507-1.636-0.711-1.912-0.573c-0.349,1.062-0.884,2.343-0.765,3.633c0.064,0.689,0.844,1.134,0.382,1.722
			c1.074,0.056,0.646-1.393,1.339-1.722c0.744,0.103,0.867,0.827,1.147,1.147c0.112,0.13,0.546-0.024,0.382,0.383
			c2.357,0.151,4.632,0.895,7.076,0.383c0.518-0.118,0.476-0.799,1.147-0.766c0.63,0.515,0.459-0.452,1.147,0
			c0.682-1.293,2.202-1.749,3.634-2.295c0.821-1.793,2.875-2.353,3.06-4.781c-0.092-0.556-1.071-1.209-0.383-1.912
			C59.417,41.153,59.523,41.877,60.557,41.67z M51.377,35.359c0.757-0.211,1.203-1.561,0.956-2.486
			c-0.082-0.305-0.676-0.662-0.765-0.765c-0.269-0.31-0.424-0.488-0.765-0.574c-0.445,0.512-1.36,0.551-1.721,1.147
			c0.079,0.747,0.295,1.915,0.765,2.295c0.098,0.079,0.702,0.169,0.765,0.191C50.773,35.226,50.967,35.475,51.377,35.359z
			 M38.754,42.627c0.502-0.869,0.347-2.102,0-3.06c-0.59-0.568-2.01-0.405-2.869-0.191C35.294,41.226,36.545,43.577,38.754,42.627z"
			/>
		<path d="M62.278,1.317c0.444-0.06,0.735,0.032,0.956,0.191c-1.207,2.62-3.289,4.361-2.677,8.797
			c-0.337,0.48-0.316,0.136-0.765,0.383c-0.094,0.862-0.418,1.859-0.191,2.486c-0.709,0.566-0.807,1.744-1.721,2.104
			c-0.01,0.627-0.543,0.731-0.382,1.53c-0.685,0.371-0.701-0.074-1.339-0.191c0.084,0.428,0.339,0.683,0.765,0.765
			c-0.245,0.52-0.597,0.935-0.765,1.53c-1.243-0.032-1.424,0.999-2.486,1.147c-0.514-0.853,0.511-0.912,0.765-1.53
			c-0.928-0.853,0.317-1.847,0.574-2.678c-0.169-0.466-0.445-0.828-0.382-1.53c0.524-1.516,1.748-2.333,2.677-3.442
			c0.359-0.663-0.219-0.725-0.382-1.339c0.046-0.59,0.532-0.74,0.765-1.147c0.122-0.961,0.222-1.946,0.382-2.869
			c1.305-0.225,0.785-2.274,1.721-2.869c0.644-0.195,0.297,0.597,0.382,0.957C61.87,3.841,61.306,1.813,62.278,1.317z"/>
		<path d="M61.13,40.523c0.166,0.741-0.468,0.682-0.574,1.147c-1.034,0.207-1.14-0.518-2.104-0.382
			c-0.688,0.703,0.291,1.356,0.383,1.912c-0.186,2.429-2.239,2.988-3.06,4.781c-1.432,0.546-2.952,1.002-3.634,2.295
			c-0.688-0.452-0.518,0.515-1.147,0c-0.671-0.033-0.629,0.647-1.147,0.766c-2.444,0.512-4.719-0.231-7.076-0.383
			c0.164-0.407-0.271-0.253-0.382-0.383c-0.281-0.32-0.404-1.045-1.147-1.147c-0.692,0.329-0.265,1.777-1.339,1.722
			c0.462-0.588-0.318-1.032-0.382-1.722c-0.119-1.29,0.416-2.571,0.765-3.633c0.276-0.138,1.395,0.066,1.912,0.573
			c0.227,0.803-0.807,0.343-0.956,0.765c-0.052,1.071,0.699,1.341,1.721,1.339c0.977,0.731,3.062,1.502,4.781,1.147
			c0.917-0.187,1.243-0.906,1.913-1.147c0.583,0.16,0.974,0.023,1.147,0.191c0.654-0.558,1.511-0.912,1.913-1.721
			c1.997-0.361,2.885-1.834,3.825-3.252c0.064-1.02-0.237-1.673-0.383-2.486c-0.229-0.229-0.466-0.546-0.765-0.765
			c-0.213-0.156-0.761-0.116-0.765-0.574c0.228-1.276,1.474-1.315,2.486-1.147c0.502,0.083,1.002,0.828,1.721,1.147
			c0.257,0.115,0.634,0.133,0.765,0.191C59.951,39.914,60.963,39.869,61.13,40.523z"/>
		<path d="M52.333,32.873c0.247,0.926-0.199,2.275-0.956,2.486c-0.41,0.115-0.604-0.134-0.765-0.191
			c-0.063-0.022-0.667-0.112-0.765-0.191c-0.47-0.38-0.687-1.548-0.765-2.295c0.361-0.596,1.276-0.636,1.721-1.147
			c0.341,0.085,0.497,0.264,0.765,0.574C51.657,32.211,52.251,32.568,52.333,32.873z"/>
		<path d="M38.754,39.567c0.347,0.958,0.502,2.191,0,3.06c-2.209,0.95-3.46-1.401-2.869-3.251
			C36.745,39.162,38.165,38.999,38.754,39.567z"/>
		<path d="M38.372,61.561c0.169,0.809-0.195,1.081-0.574,1.339c-0.167,0.613,0.295,0.6,0.574,0.765
			c-0.364,0.91-1.144,1.407-0.956,2.868c-0.588,0.05-0.861,0.417-1.339,0.574c0.299,1.146-0.171,1.777-0.765,2.486
			c-0.082,0.538,0.713-0.479,0.765,0.191c0.031,0.935-0.673,0.236-0.957,0.573c-0.611,0.347-1.022,1.696-0.574,2.485
			c0.083,0.285,0.246-0.072,0.574,0c-0.016,0.274-0.031,0.543,0.191,0.574c-0.193,1.083-0.809,1.742-0.956,2.869
			c-0.364,0.082-0.347,0.548-0.957,0.382c0.036,0.732-0.109,1.643,0.574,1.722c-0.353,0.731-0.416,1.754-0.574,2.678
			c-0.583-0.138-0.697,0.197-1.147,0.191c0.004,0.833,0.064,1.722-0.191,2.295c-0.95-0.186-1.243,0.289-1.147,1.147
			c-1.014-0.265-0.15-2.033-0.191-2.486c-0.131-0.514,0.395-0.368,0.574-0.573c-0.004-0.528-0.389-1.141,0-1.722
			c0.089-0.134,0.518-0.247,0.574-0.383c0.285-0.687,0.231-1.702,0-2.678c-0.076-0.32-0.389-0.579-0.382-0.956
			c0.021-1.295,1.173-2.372,1.338-3.634c-0.026-0.738-0.775-0.752-0.956-1.338c-0.081-1.739-0.008-3.32,1.721-3.252
			c0.249-0.345-0.171-0.965,0.191-1.529c0.789-0.104,1.12-0.665,1.721-0.956c0.324-1.53-0.749-2.268-0.383-3.252
			c0.701,0,0.733,0.672,1.147,0.957c0.484-0.215,0.556-0.847,0.574-1.53C37.384,61.921,37.657,61.984,38.372,61.561z"/>
		<path d="M38.181,20.633c-0.522-0.269-0.343,0.396-0.574,0.574c-0.464,0.357-1.299,0.317-1.53,0.957
			c-0.305-0.267-0.488-0.658-0.574-1.147c-0.594-0.251-0.546,0.051-1.339,0c-0.169-1.146-1.424-1.872-0.956-3.06
			C32.932,17.47,32.192,17.443,31.87,17c0-0.446,0-0.893,0-1.339c-0.046-0.335-0.329-0.434-0.765-0.382
			c-0.281-0.861-0.1-1.543,0.383-2.104c0.757,0.453,0.915-0.193,1.338-0.574c0.591,1.326,1.438,2.387,1.913,3.826
			c0.62,0.237,0.146-0.618,0.765-0.383c0.52,0.885-0.169,2.219,1.338,1.721C37.143,18.866,37.942,19.47,38.181,20.633z"/>
		<path d="M24.602,47.408c0.632,0.021,0.916,0.613,1.722,0.573c-0.255,1.214-0.986,1.946-1.913,2.486
			c-0.385-0.188-0.775-0.372-1.147-0.573c-0.47,0.422-1.534,0.253-1.53,1.147c-0.821-0.48-1.271,0.153-2.103,0.191
			c-0.669,0.033-0.603-0.672-0.956-0.957c-0.319,0.318-0.641,0.638-0.957,0.957c-0.447,0.19-1.172-0.189-1.147-0.191
			c-0.262,0.012-0.232,0.341-0.382,0.382c-0.254,0.071-0.449-0.221-0.574-0.19c-0.535,0.127-1.126,0.696-1.53,0.19
			c-0.086-0.105-0.264,0.178-0.191,0.191c-0.357-0.069-0.441-0.307-0.766-0.382c-0.682-0.156-1.273-0.059-1.721,0
			c-1.6,0.213-1.926,0.127-2.869,0.382c-0.893-0.414-2.747-1.044-3.442,0c-1.08-0.402-2.144-0.093-2.677,0.574
			c0.021-0.753,0.831-0.584,0.382-1.339c-0.797-0.096-0.843,0.56-1.721,0.383c-0.317-0.779,0.389-1.13,0.956-1.339
			c0.825-0.304,1.61,0.271,2.295,0c0.396-0.112,0.651-0.366,0.765-0.766c0.377-0.056,0.378,0.26,0.574,0.383
			c1.016-0.366,1.958-0.939,3.06-0.956c0.232-0.002,0.464,0.209,0.574,0.191c0.635-0.1,1.284-0.477,1.913-0.574
			c0.61-0.163,0.591,0.304,0.957,0.383c0.524-0.177,0.814-0.586,1.339-0.765c0.842-0.142,0.782,0.619,1.339,0.765
			c0.445,0.311,0.734-0.297,1.147-0.383c0.278-0.056,0.406,0.186,0.574,0.191c0.378,0.015,0.796-0.389,0.957-0.383
			c0.681,0.025,1.197,0.314,1.912,0.574c0.685,0.05,0.701-0.574,1.338-0.574c-0.132,0.516,0.395,0.371,0.574,0.574
			C22.572,48.516,23.48,47.37,24.602,47.408z"/>
		<path d="M25.941,31.917c-0.317,0.868,0.071,1.384-0.191,2.104c-0.476,0.161-1.024,0.25-1.721,0.191
			c0.123-1.016-0.239-1.544-0.765-1.913c-0.424-0.104-0.273,0.366-0.574,0.383c-0.624,0.05-0.921-0.228-0.957-0.765
			c-0.486,0.344-1.066,0.593-1.721,0.765c0.167-0.471-1.494-0.69-2.103-0.765c-0.674-0.951-2.316-0.939-3.251-0.765
			c-0.414-0.162-0.678-0.471-0.574-1.147c-1.135-0.238-1.222,0.564-1.722,0.957c-0.61-0.301-0.725-1.393-1.722-0.765
			c0.166-0.74-0.466-0.68-0.573-1.147c-0.396,0.114-1.257-0.236-1.339,0.191c-0.537-0.291-0.751-0.905-1.721-0.765
			c0.072-1.288,1.875-1.945,3.06-1.339c0.065,0.034,0.346,0.376,0.382,0.383c0.092,0.017,1.223-0.37,1.148,0.383
			c0.39-0.183,0.757-0.391,1.147-0.574c0.629,0.071,0.957,0.448,1.339,0.766c0.318,0.023,1.216-0.621,1.147,0.191
			c0.604,0.031,0.638-0.509,1.338-0.382c0.381,0.386,0.904,0.625,1.147,1.147c1.404-0.256,3.091,0.051,4.781,0.382
			c0.265,0.82,1.054,1.113,2.104,1.147C24.923,31.152,25.477,31.489,25.941,31.917z"/>
		<path d="M2.417,52.189C2.601,52.983,1.844,52.229,2.417,52.189L2.417,52.189z"/>
	</g>
</g>
</svg>
