            <svg width="47px" height="14px" viewBox="0 0 47 14" version="1.1" xmlns="http://www.w3.org/2000/svg" xmlns:xlink="http://www.w3.org/1999/xlink" stroke="white" stroke-width="2">
              <g class="logo-svg">
                <path d="M21.9982203,7.99821637 L21.9890885,13.123635 C21.9882275,13.606884 22.4352442,13.9992455 22.9875283,13.9999989 C23.5398124,14.0007523 23.988225,13.6096122 23.989086,13.1263631 L23.9982164,8.00177971 L29.123635,8.01091154 C29.606884,8.01177254 29.9992455,7.5647558 29.9999989,7.01247172 C30.0007523,6.46018764 29.6096122,6.01177497 29.1263631,6.01091397 L24.0017797,6.00178363 L24.0109115,0.876365047 C24.0117725,0.393115966 23.5647558,0.000754456002 23.0124717,1.08646536e-06 C22.4601876,-0.000752283071 22.011775,0.390387773 22.010914,0.873636854 L22.0017836,5.99822029 L16.876365,5.98908846 C16.393116,5.98822746 16.0007545,6.4352442 16.0000011,6.98752828 C15.9992477,7.53981236 16.3903878,7.98822503 16.8736369,7.98908603 L21.9982203,7.99821637 Z"></path>
                <path d="M7,12 C9.76142375,12 12,9.76142375 12,7 C12,4.23857625 9.76142375,2 7,2 C4.23857625,2 2,4.23857625 2,7 C2,9.76142375 4.23857625,12 7,12 Z M7,14 C3.13400675,14 0,10.8659932 0,7 C0,3.13400675 3.13400675,0 7,0 C10.8659932,0 14,3.13400675 14,7 C14,10.8659932 10.8659932,14 7,14 Z"></path>
                <path d="M33.8268895,11.959798 L44.1763649,11.959798 L39.0016272,2.85778655 L33.8268895,11.959798 Z M39.8443965,0.461725029 L46.8443965,12.421523 C47.2695462,13.0871737 46.7914647,13.959798 46.0016272,13.959798 L32.0016272,13.959798 C31.2117897,13.959798 30.7337082,13.0871737 31.1588579,12.421523 L38.1588579,0.461725029 C38.5520617,-0.153908343 39.4511927,-0.153908343 39.8443965,0.461725029 Z"></path>
              </g>
            </svg>